<svg xmlns="http://www.w3.org/2000/svg" viewBox="0 0 89.2 102.9" fill="currentColor">
    <path d="M69.3 102.9H20.7v-5.3l1-1.1A33 33 0 0 1 45 87.3a33 33 0 0 1 23.2 9.2l1 1Zm-42.5-4.7h36.3A28.7 28.7 0 0 0 45 91.9a28.7 28.7 0 0 0-18.2 6.3M21.7 16.3H18L3.4 59.1H0V64l.8 1a23.7 23.7 0 0 0 18.5 9A23.7 23.7 0 0 0 38 64.8l.8-1v-4.7h-3.4Zm-2 7.1 11.4 35.7H7.7Zm-.4 46.7a19.5 19.5 0 0 1-14.6-7H34a19.5 19.5 0 0 1-14.7 7M72.2 16.3h-3.8L53.9 59.1h-3.4V64l.7 1a23.2 23.2 0 0 0 37.2 0l.7-1v-5h-3.3Zm-2 7.1 11.4 35.7H58Zm-.4 46.7a19.5 19.5 0 0 1-14.7-7h29.4a19.5 19.5 0 0 1-14.7 7"/>
    <path d="M89.2 10.8H52.5a7.8 7.8 0 0 0-5.1-5.5V0h-5v5.3a7.9 7.9 0 0 0-5 5.5H.8V15a8.5 8.5 0 0 1 8.4 7.7h4.1A12.5 12.5 0 0 0 10 15h27.4a7.9 7.9 0 0 0 5 5.2v71.5h5V20.2a7.9 7.9 0 0 0 5-5.2H80a12.5 12.5 0 0 0-3.3 7.7h4a8.5 8.5 0 0 1 8.6-7.7Zm-41.8 4.7a3.6 3.6 0 0 1-5 0 3.8 3.8 0 0 1-.4-.5 3.7 3.7 0 1 1 5.8 0 3.7 3.7 0 0 1-.4.5"/>
</svg>
