<svg xmlns="http://www.w3.org/2000/svg" viewBox="0 0 71.4 131.9" fill="currentColor">
    <path d="M19.6 37.8h32.1v4.6h-32z"/>
    <path d="M.1 34.6a12.6 12.6 0 0 1 11.9 11h4.6a17.3 17.3 0 0 0-4.4-10l-1-1h48.9l-1 1a17.3 17.3 0 0 0-4.4 10h4.7a12.7 12.7 0 0 1 12-11V30H0v4.7h.1Z"/>
    <path d="M41.8 131.9H29.5L23.7 38h24Zm-8-4.6h3.7l5.3-84.7H28.6ZM10.6 22.4h50.8v4.1H10.6zM27.3 10 29 6.3l2 3.7a38.8 38.8 0 0 0 10 12.4h6.6A34.8 34.8 0 0 1 31.4 0h-4.6a34.8 34.8 0 0 1-16.2 22.4h6.7a38.8 38.8 0 0 0 10-12.4"/>
    <path d="m41 10 1.8-3.7 1.9 3.7a38.8 38.8 0 0 0 10 12.4h6.7A34.8 34.8 0 0 1 45.2 0h-4.7a34.8 34.8 0 0 1-16.1 22.4H31A38.8 38.8 0 0 0 41 10"/>
</svg>
