<svg xmlns="http://www.w3.org/2000/svg" viewBox="0 0 250 250">
    <path style="fill:#fa5d00" d="M109.4 156.6V250H93.6V109.5a15.6 15.6 0 0 1 15.8-15.4H156v46.7a15.6 15.6 0 0 1-15.5 15.8ZM250 0v234.2a15.8 15.8 0 0 1-15.8 15.8h-15.4V15.5A15.3 15.3 0 0 1 234.2 0Zm-62.4 0H203v234.2a15.8 15.8 0 0 1-15.4 15.8h-15.8V78a15.6 15.6 0 0 1 15.8-15.5ZM62.4 250H47V15.5A15.3 15.3 0 0 1 62.4 0h15.8v171.7a15.8 15.8 0 0 1-15.8 15.8ZM0 250V15.5A15.6 15.6 0 0 1 15.8 0h15.4v234.2A15.6 15.6 0 0 1 15.8 250Z"/>
</svg>
