<svg xmlns="http://www.w3.org/2000/svg" viewBox="0 0 125.109 125.11"><defs><style>.cls-1{fill:#231f20;stroke-width:0}</style></defs><path d="M10.567 43.032h22.954v1H10.567zM10.567 62.828h22.954v1H10.567zM10.567 82.624h22.954v1H10.567zM37.953 43.032h22.954v1H37.953zM37.953 62.828h22.954v1H37.953zM37.953 82.624h22.954v1H37.953zM65.339 43.032h22.954v1H65.339zM65.339 62.828h22.954v1H65.339zM65.339 82.624h22.954v1H65.339zM92.724 43.032h22.954v1H92.724zM92.724 62.828h22.954v1H92.724zM92.724 82.624h22.954v1H92.724z" class="cls-1"/></svg>
