<svg xmlns="http://www.w3.org/2000/svg" viewBox="0 0 50.7 44.3" fill="currentColor">
    <path d="M44.7 44.3H6c-1 0-2-.3-2.9-.8a6.5 6.5 0 0 1-2.9-3.6c-.4-1.6-.2-3.2.6-4.6L20.2 2.9c.4-.7 1-1.4 2-2a6 6 0 0 1 8.4 2l19.3 32.3c.5.8.8 1.8.8 3a6 6 0 0 1-6 6.1ZM25.5 3c-.6 0-1.2.2-1.7.5-.6.4-.8.7-.9.9v.1L3.4 36.8a3 3 0 0 0-.3 2.3c.2.8.7 1.4 1.4 1.8.5.3 1 .4 1.5.4h38.7c1.7 0 3-1.4 3-3.1s-.1-1-.3-1.4L28 4.4A3 3 0 0 0 26.1 3h-.7Zm-4 .7Z"/>
    <path d="M25.4 27.6c-.8 0-1.5-.7-1.5-1.5V14.3c0-.8.7-1.5 1.5-1.5s1.5.7 1.5 1.5v11.8c0 .8-.7 1.5-1.5 1.5ZM25.4 35.2c-.4 0-.8-.2-1.1-.4-.3-.3-.4-.7-.4-1.1s.2-.8.4-1.1l.2-.2.3-.1h.3c.5-.1 1 0 1.4.4.3.3.4.7.4 1.1s-.2.8-.4 1.1l-.5.3-.6.1Z"/>
</svg>
