<svg xmlns="http://www.w3.org/2000/svg" version="1.1" viewBox="0 0 42 44.2" fill="currentColor">
    <path d="M40.6 35.6H1.5c-.7 0-1.2-.4-1.4-1.1-.2-.6 0-1.3.6-1.7 0 0 4.3-4.3 5.8-18.3S18.2.1 21 0c7.8-.3 14.2 6.2 14.5 13.9v.6c0 14.1 5.8 18.3 5.9 18.4.5.4.8 1.1.6 1.7-.2.6-.8 1-1.4 1Zm-35.7-3h32.3c-2-2.9-4.5-8.3-4.6-17.6v-.5C32.6 8.2 27.4 3 21.1 3S9.6 8.2 9.6 14.5c0 9.6-2.5 15.2-4.6 18.1h-.1ZM21 44.2c-1 0-2-.3-2.9-.8a7 7 0 0 1-2.1-2.1c-.4-.7 0-1.6.7-2s1.6 0 2 .7c0 0 .3.5 1 .9.6.3 1.3.4 2 .2s1.3-.6 1.7-1.3c.4-.7 1.3-.9 2.1-.5.7.4.9 1.3.5 2.1-.8 1.3-2 2.2-3.5 2.6l-1.5.2Z"/>
</svg>
