<svg xmlns="http://www.w3.org/2000/svg" viewBox="0 0 24.5 24.5" fill="currentColor">
    <path d="M12.2 6a6.3 6.3 0 1 0 6.3 6.2A6.3 6.3 0 0 0 12.2 6Zm0 10.3a4 4 0 1 1 4.1-4 4 4 0 0 1-4 4Zm8-10.6a1.5 1.5 0 1 1-1.4-1.5 1.5 1.5 0 0 1 1.4 1.5Zm4.2 1.5a7.2 7.2 0 0 0-2-5.1 7.3 7.3 0 0 0-5.1-2H7.2A7.3 7.3 0 0 0 2 2a7.3 7.3 0 0 0-2 5v10.2a7.2 7.2 0 0 0 2 5.1 7.3 7.3 0 0 0 5 2h10.2a7.2 7.2 0 0 0 5.1-2 7.3 7.3 0 0 0 2-5.1V7.2Zm-2.6 12.2a4.1 4.1 0 0 1-2.3 2.4c-1.7.6-5.5.5-7.3.5s-5.6.1-7.2-.5a4.1 4.1 0 0 1-2.3-2.4c-.6-1.6-.5-5.4-.5-7.2s-.1-5.6.5-7.2A4.1 4.1 0 0 1 5 2.7c1.6-.6 5.5-.5 7.2-.5s5.6-.1 7.3.5A4.1 4.1 0 0 1 21.8 5c.6 1.6.5 5.5.5 7.2s.1 5.6-.5 7.2Z"></path>
</svg>
