<svg xmlns="http://www.w3.org/2000/svg" viewBox="0 0 27.953 22.703" fill="currentColor">
    <path d="M25.08,9.039c.018.248.018.5.018.745,0,7.574-5.764,16.3-16.3,16.3A16.19,16.19,0,0,1,0,23.512a11.852,11.852,0,0,0,1.383.071A11.474,11.474,0,0,0,8.5,21.135a5.739,5.739,0,0,1-5.357-3.973,7.225,7.225,0,0,0,1.082.089,6.059,6.059,0,0,0,1.508-.2,5.73,5.73,0,0,1-4.594-5.623v-.071a5.77,5.77,0,0,0,2.59.727A5.738,5.738,0,0,1,1.951,4.427a16.285,16.285,0,0,0,11.813,6,6.467,6.467,0,0,1-.142-1.312,5.734,5.734,0,0,1,9.915-3.92,11.279,11.279,0,0,0,3.636-1.383,5.714,5.714,0,0,1-2.519,3.157,11.485,11.485,0,0,0,3.3-.887A12.315,12.315,0,0,1,25.08,9.039Z"></path>
</svg>
