<svg xmlns="http://www.w3.org/2000/svg" viewBox="0 0 29.817 20.965" fill="currentColor">
    <path d="M30.244,7.78a3.747,3.747,0,0,0-2.636-2.653C25.282,4.5,15.958,4.5,15.958,4.5s-9.324,0-11.649.627A3.747,3.747,0,0,0,1.673,7.78,39.3,39.3,0,0,0,1.05,15a39.3,39.3,0,0,0,.623,7.223,3.691,3.691,0,0,0,2.636,2.611c2.325.627,11.649.627,11.649.627s9.324,0,11.649-.627a3.691,3.691,0,0,0,2.636-2.611A39.3,39.3,0,0,0,30.867,15a39.3,39.3,0,0,0-.623-7.223ZM12.909,19.437V10.57L20.7,15l-7.793,4.433Z"></path>
</svg>
