<svg id="Layer_1" xmlns="http://www.w3.org/2000/svg" viewBox="0 0 18.2 21.5"><style>.st0{fill:#fff}</style><path class="st0" d="M13.7 13.3h-9c-.3 0-.5-.2-.5-.5s.2-.5.5-.5h9c.3 0 .5.2.5.5 0 .2-.2.5-.5.5zM13.7 10.5h-9c-.3 0-.5-.2-.5-.5s.2-.5.5-.5h9c.3 0 .5.2.5.5s-.2.5-.5.5zM13.7 16h-9c-.3 0-.5-.2-.5-.5s.2-.5.5-.5h9c.3 0 .5.2.5.5s-.2.5-.5.5z"/><path class="st0" d="M18.2 21.5H0V5.7L5.7 0h12c.3 0 .5.2.5.5s-.3.5-.5.5H6.1L1 6.1v14.4h16.2V.7c0-.3.2-.5.5-.5s.5.2.5.5v20.8z"/><path class="st0" d="M6.4 6.4H.5c-.3 0-.5-.2-.5-.5s.2-.5.5-.5h4.9V.5c0-.3.2-.5.5-.5s.5.2.5.5v5.9z"/></svg>