<svg id="Layer_1" xmlns="http://www.w3.org/2000/svg" viewBox="0 0 57.5 83.8"><style>.st0{fill:#fff}</style><path class="st0" d="M.5 12c-.1 0-.3-.1-.4-.2-.2-.2-.2-.6 0-.8 3-2.6 6.3-4.9 9.9-6.6 15.3-7.6 33.5-5.2 46.3 6.1.2.2.2.5 0 .8-.2.2-.5.2-.8 0C43 .3 25.3-2.1 10.4 5.3 7 7.1 3.8 9.3.9 11.9c-.1.1-.2.1-.4.1z"/><path class="st0" d="M56.3 10.6V5.3c0-.3.2-.5.5-.5s.5.2.5.5l-.1 6.5c0 .1-.1.2-.1.3H57c-.1.1-.2.1-.3.1l-6.5-.1c-.1 0-.3-.1-.3-.1-.1-.1-.1-.2-.1-.3 0-.1.1-.3.1-.3.1-.1.2-.1.3-.1h5.3M28.5 83.8c-9.8 0-19.5-3.5-27.3-10.1-.2-.2-.2-.6 0-.8s.5-.3.8-.1c12.4 10.7 30 12.9 44.7 5.6 3.7-1.8 7-4.1 10-6.9.2-.2.6-.2.8 0 .2.2.2.6 0 .8-3 2.9-6.5 5.3-10.2 7.1-6.1 3-12.5 4.4-18.8 4.4z"/><path class="st0" d="M1.5 73.6v5.3c0 .3-.2.5-.5.5s-.5-.2-.5-.5l.1-6.5c0-.1.1-.2.1-.3V72c.1-.1.2-.1.3-.1l6.5.1c.1 0 .3.1.3.1.1.1.2.2.2.3 0 .1-.1.3-.1.3-.1.1-.2.1-.3.1H2.3"/><path d="M39.7 45.8c0-5.6-4.5-10.1-10.1-10.1-.4 0-.8.4-.8.8V45h-8.5c-.4 0-.8.4-.8.8 0 5.6 4.5 10.1 10.1 10.1s10.1-4.6 10.1-10.1zm-1.6-.9h-7.6v-7.6c4 .4 7.2 3.6 7.6 7.6zm-16.9 1.7h7.6v7.6c-4-.4-7.2-3.6-7.6-7.6zm9.3 0h7.6c-.4 4-3.6 7.2-7.6 7.6v-7.6zm-2.3-3.1v-9.3c0-.4-.4-.8-.8-.8-5.6 0-10.1 4.5-10.1 10.1 0 .4.4.8.8.8h9.3c.5 0 .8-.3.8-.8zm-9.2-.8c.4-4 3.6-7.2 7.6-7.6v7.6H19z" fill="#fff" stroke="#fff" stroke-width=".519" stroke-miterlimit="10"/><g><path class="st0" d="M30.6 66.6c-.4 0-.7-.3-.8-.7 0-.4.3-.8.7-.8.4 0 .8.3.9.7 0 .4-.2.8-.6.8h-.2zm-4.4 0c-.1 0-.1 0 0 0H26c-.4 0-.7-.4-.7-.8s.4-.7.8-.7h.1c.4 0 .7.4.7.8s-.3.7-.7.7zm8.8-.9c-.3 0-.6-.2-.7-.5-.1-.4.1-.8.5-1h.1c.4-.1.8.1 1 .5.1.4-.1.8-.5 1H35zm-13.2-.1H21.5c-.4-.1-.6-.6-.5-1 .1-.4.6-.6 1-.5h.1c.4.1.6.6.5 1-.2.3-.5.5-.8.5zm17.3-1.7c-.3 0-.5-.1-.7-.4-.2-.4-.1-.8.3-1.1l.1-.1c.4-.2.8-.1 1.1.3.2.4.1.8-.3 1.1l-.1.1c-.1.1-.3.1-.4.1zm-21.5-.1c-.1 0-.3 0-.4-.1l-.1-.1c-.4-.2-.5-.7-.3-1.1s.7-.5 1.1-.3l.1.1c.4.2.5.7.3 1.1-.1.2-.4.4-.7.4zm25.2-2.5c-.2 0-.4-.1-.6-.3-.3-.3-.3-.8.1-1.1l.1-.1c.3-.3.8-.3 1.1.1.3.3.3.8-.1 1.1l-.1.1c-.1.1-.3.2-.5.2zM14 61.1c-.2 0-.3-.1-.5-.2l-.1-.1c-.3-.3-.3-.8 0-1.1.3-.3.8-.3 1.1 0 .3.3.4.8.1 1.1-.2.2-.4.3-.6.3zM45.8 58c-.2 0-.3 0-.5-.2-.3-.3-.4-.7-.2-1.1l.1-.1c.3-.3.7-.4 1.1-.2.3.3.4.7.2 1.1l-.1.1c-.1.3-.3.4-.6.4zM11 57.7c-.2 0-.5-.1-.6-.3l-.1-.1c-.2-.3-.2-.8.2-1.1s.8-.2 1.1.2l.1.1c.2.3.2.8-.2 1.1-.2.1-.3.1-.5.1zm37.1-3.6c-.1 0-.2 0-.3-.1-.4-.2-.6-.6-.4-1v-.1c.2-.4.6-.6 1-.4s.6.6.4 1c-.1.4-.4.6-.7.6zm-39.3-.4c-.3 0-.5-.1-.7-.4l-.1-.1c-.2-.4 0-.8.4-1 .4-.2.8 0 1 .4.2.4 0 .9-.4 1.1h-.2zm40.7-3.9h-.1c-.4-.1-.7-.5-.6-.9v-.1c.1-.4.5-.7.9-.6.4.1.7.5.6.9v.1c-.1.3-.4.6-.8.6zm-42.1-.4c-.3 0-.7-.2-.7-.6v-.1c-.1-.4.2-.8.6-.9.4-.1.8.2.9.6.1.4-.2.9-.6 1h-.2zM50 45.3c-.4 0-.8-.3-.8-.8v-.1c0-.4.3-.8.8-.8s.8.3.8.8v.1c0 .5-.3.8-.8.8zM7 45c-.4 0-.8-.4-.8-.8v-.1c0-.4.3-.8.8-.8.4 0 .8.4.8.8v.1c0 .4-.3.8-.8.8zm42.7-3.7c-.4 0-.7-.3-.8-.6v-.1c-.1-.4.2-.8.6-.9.4-.1.8.2.9.6v.1c.1.4-.2.8-.6.9h-.1zm-42.2-.8h-.2c-.3-.1-.6-.5-.5-.9v-.1c.1-.4.5-.7.9-.6.4.1.7.5.6.9l-.8-.2.7.3c0 .4-.3.6-.7.6zm40.9-3.6c-.3 0-.6-.2-.7-.4v-.1c-.2-.4 0-.8.4-1 .4-.2.8 0 1 .4v.1c.2.4 0 .9-.4 1h-.3zM9 36.2c-.1 0-.2 0-.3-.1-.4-.2-.6-.6-.4-1V35c.2-.4.6-.6 1-.4.4.2.6.6.4 1v.1c-.1.4-.4.5-.7.5zM46.2 33c-.2 0-.4-.1-.6-.3l-.1-.1c-.2-.3-.2-.8.2-1.1.3-.2.8-.2 1.1.2.2.3.2.9-.2 1.1-.1.1-.2.2-.4.2zm-34.9-.6c-.2 0-.3-.1-.5-.2-.3-.3-.4-.7-.2-1.1l.1-.1c.3-.3.7-.4 1.1-.2.3.3.4.7.2 1.1l-.1.1c-.1.2-.4.4-.6.4zm32-2.8c-.2 0-.3-.1-.5-.2l-.1-.1c-.3-.3-.3-.8 0-1.1.3-.3.8-.3 1.1 0 .3.3.4.8.1 1.1-.2.2-.4.3-.6.3zM14.4 29c-.2 0-.4-.1-.6-.3-.3-.3-.2-.8.1-1.1.3-.3.8-.3 1.1 0 .3.3.3.8 0 1.1l-.1.1c-.2.2-.4.2-.5.2zm25.3-2.2c-.1 0-.3 0-.4-.1l-.1-.1c-.4-.2-.5-.7-.3-1.1.2-.4.7-.5 1.1-.3l.1.1c.4.2.5.7.3 1.1-.2.3-.4.4-.7.4zM18 26.4c-.3 0-.5-.1-.7-.4-.2-.4-.1-.8.3-1.1h.1c.4-.2.9-.1 1.1.3.2.4.1.8-.3 1l-.1.1c-.1.1-.2.1-.4.1zm17.6-1.5h-.4c-.4-.1-.6-.6-.5-1 .1-.4.6-.6 1-.5h.1c.4.1.6.6.5 1-.1.3-.4.5-.7.5zm-13.4-.2c-.3 0-.6-.2-.7-.5-.1-.4.1-.8.5-1h.1c.4-.1.8.1 1 .5.1.4-.1.8-.5 1h-.1c-.2-.1-.2 0-.3 0zm9-.8H31c-.4-.1-.7-.4-.7-.9.1-.4.4-.7.9-.7h.1c.4.1.7.4.7.9 0 .4-.4.7-.8.7zm-4.6-.1c-.4 0-.7-.3-.8-.7 0-.4.3-.8.7-.8h.1c.4 0 .8.3.8.7 0 .4-.3.8-.7.8h-.1c.1 0 0 0 0 0z"/></g></svg>