<svg id="Layer_1" xmlns="http://www.w3.org/2000/svg" viewBox="0 0 22.2 20.1"><style>.st0{fill:#fff}</style><path class="st0" d="M4.2 20.1h-.8c-.2 0-.4-.2-.5-.4 0-.2.1-.4.3-.5 1.2-.6 2.1-1.4 2.7-2.4C2.3 15.2 0 12.1 0 8.9 0 4 5 0 11.1 0s11.1 4 11.1 8.9-5 8.9-11.1 8.9h-.6c-1.6 1.4-3.8 2.3-6.3 2.3zM11.1 1C5.5 1 1 4.5 1 8.9c0 3 2.3 5.8 5.8 7.1.1 0 .2.1.2.3.1.1 0 .3 0 .4v.1c-.1.1-.1.2-.2.3-.4.7-1 1.4-1.6 1.9 1.9-.2 3.6-.9 4.8-2.2.1-.1.2-.2.4-.2h.8c5.6 0 10.1-3.5 10.1-7.9C21.2 4.5 16.7 1 11.1 1z"/><path class="st0" d="M6.7 8.8c.3 0 .5.2.5.5s-.2.5-.5.5-.5-.2-.5-.5.2-.5.5-.5zm0-1c-.8 0-1.5.7-1.5 1.5s.7 1.5 1.5 1.5 1.5-.7 1.5-1.5c-.1-.9-.7-1.5-1.5-1.5zM11.1 8.8c.3 0 .5.2.5.5s-.2.5-.5.5-.5-.2-.5-.5c.1-.3.3-.5.5-.5zm0-1c-.8 0-1.5.7-1.5 1.5s.7 1.5 1.5 1.5 1.5-.7 1.5-1.5c0-.9-.7-1.5-1.5-1.5zM15.6 8.8c.3 0 .5.2.5.5s-.2.5-.5.5-.5-.2-.5-.5.2-.5.5-.5zm0-1c-.8 0-1.5.7-1.5 1.5s.7 1.5 1.5 1.5 1.5-.7 1.5-1.5c0-.9-.7-1.5-1.5-1.5z"/></svg>