<svg id="Layer_1" xmlns="http://www.w3.org/2000/svg" viewBox="0 0 317 45.9"><style>.st0{fill:#29266a}.st1{enable-background:new}</style><path class="st0" d="M125.8 0h-3c7.1 4.3 11.6 9.3 11.6 14.7 0 16-34 27.8-75.4 27.8-23.9 0-45.3-4.2-59-10.6v3.4C14.2 41.8 35.4 46 59 46c44.8 0 77.6-13.7 77.6-30.5 0-5.7-3.9-11-10.8-15.5"/><path class="st0" d="M107.2 26.4V15.2c1.4 2 7.5 11.3 7.5 11.3h4V8.8h-4.4V20c-1.4-2.1-7.4-11.2-7.4-11.2h-4.1v17.6h4.4zm-22.6-4.5h6.1l1.8 4.5h5L89.7 8.8H87l-7.8 17.6h3.5l1.9-4.5zm3.1-7.2l1.9 4.7h-3.9l2-4.7zm-12.6 8.8H69V8.8h-4.3v17.6h10.5v-2.9zM4.9 8.8H0v17.6h4.9V8.8zm21.8 13.1h6.1l1.8 4.5h5L31.9 8.8h-2.7l-7.8 17.6h3.5l1.8-4.5zm3.1-7.2l1.9 4.7h-3.9l2-4.7zm20.1 5.5H52c.2 0 1.6 0 3-.4 1.5-.4 3.7-2.3 3.7-5.3 0-1.5-.4-2.7-1.1-3.7-1.1-1.4-3-2.1-6-2.1h-6v17.7h4.3v-6.2zm0-8.5h1.2c2.2 0 3.2.8 3.2 2.7 0 1-.3 1.9-.9 2.4-.4.4-1 .5-2.5.5h-1v-5.6zm-32 14.7l-5.7-8.8h-1.5l5-8.8H12l-5.1 8.8 5.5 8.8h5.5z"/><g class="st1"><path class="st0" d="M148.9 19.5v-9.2h2v7.6h3.7v1.6h-5.7zM159.2 19.6c-1.1 0-2-.3-2.7-.9-.6-.6-1-1.5-1-2.7 0-1.2.3-2.1.9-2.7.6-.6 1.4-1 2.5-1 1 0 1.8.3 2.3.8.6.6.8 1.3.8 2.3v.9h-4.5c0 .5.2 1 .5 1.3.3.3.7.5 1.3.5.4 0 .8 0 1.2-.1.4-.1.8-.2 1.2-.4v1.5c-.3.2-.7.3-1.1.4s-.8.1-1.4.1zm-.2-5.9c-.4 0-.7.1-1 .4s-.4.6-.4 1.1h2.7c0-.5-.1-.8-.4-1.1-.2-.3-.5-.4-.9-.4zM168.2 19.5l-.4-1h-.1c-.3.4-.7.7-1 .8s-.8.2-1.3.2c-.7 0-1.2-.2-1.6-.6-.4-.4-.6-.9-.6-1.6 0-.7.3-1.3.8-1.7.5-.4 1.3-.5 2.4-.6h1.2v-.3c0-.7-.4-1.1-1.1-1.1-.6 0-1.2.2-2 .5l-.6-1.3c.8-.4 1.7-.6 2.7-.6.9 0 1.7.2 2.2.6.5.4.8 1 .8 1.9v4.7h-1.4zm-.6-3.3h-.7c-.6 0-1 .1-1.2.3-.3.2-.4.5-.4.8 0 .5.3.8.9.8.4 0 .8-.1 1.1-.4.3-.3.4-.6.4-1v-.5zM173.7 19.6c-.8 0-1.5-.3-2-1-.5-.6-.7-1.5-.7-2.7 0-1.2.2-2.1.7-2.7.5-.6 1.1-1 2-1 .9 0 1.6.3 2 1h.1c-.1-.5-.1-1-.1-1.4V9.7h1.9v9.8h-1.5l-.4-.9h-.1c-.3.7-1 1-1.9 1zm.7-1.5c.5 0 .9-.1 1.1-.4.2-.3.4-.8.4-1.5V16c0-.8-.1-1.3-.4-1.6s-.6-.5-1.1-.5c-.4 0-.8.2-1 .5-.2.4-.4.9-.4 1.6s.1 1.2.4 1.6c.2.3.5.5 1 .5zM182.8 19.6c-1.1 0-2-.3-2.7-.9-.6-.6-1-1.5-1-2.7 0-1.2.3-2.1.9-2.7.6-.6 1.4-1 2.5-1 1 0 1.8.3 2.3.8.6.6.8 1.3.8 2.3v.9h-4.5c0 .5.2 1 .5 1.3.3.3.7.5 1.3.5.4 0 .8 0 1.2-.1.4-.1.8-.2 1.2-.4v1.5c-.3.2-.7.3-1.1.4s-.8.1-1.4.1zm-.2-5.9c-.4 0-.7.1-1 .4s-.4.6-.4 1.1h2.7c0-.5-.1-.8-.4-1.1-.2-.3-.5-.4-.9-.4zM191.2 12.3c.3 0 .5 0 .6.1l-.1 1.8c-.2 0-.3-.1-.6-.1-.6 0-1.1.2-1.4.5s-.5.8-.5 1.3v3.6h-1.9v-7h1.5l.3 1.2h.1c.2-.4.5-.7.9-1s.7-.4 1.1-.4zM198.1 17.4c0 .7-.3 1.3-.8 1.6-.5.4-1.3.6-2.3.6-.5 0-1 0-1.3-.1s-.7-.2-1-.3v-1.6c.4.2.8.3 1.2.4.4.1.8.2 1.2.2.7 0 1-.2 1-.6 0-.2 0-.3-.1-.4-.1-.1-.3-.2-.5-.3-.2-.1-.5-.3-.9-.4-.5-.2-.9-.4-1.2-.6-.3-.2-.4-.4-.6-.7-.1-.2-.2-.6-.2-.9 0-.6.2-1.1.7-1.4.5-.3 1.2-.5 2.1-.5.8 0 1.7.2 2.5.6l-.6 1.4c-.4-.2-.7-.3-1-.4-.3-.1-.6-.1-.9-.1-.6 0-.9.2-.9.5 0 .2.1.3.3.4l1.2.6c.6.2 1 .4 1.2.6.3.2.4.4.6.7.2 0 .3.3.3.7zM206.1 19.5h-1.9v-4.1c0-1-.4-1.5-1.1-1.5-.5 0-.9.2-1.2.5-.2.4-.4 1-.4 1.8v3.3h-1.9V9.7h1.9v3.7h.1c.4-.7 1.1-1 2-1 .8 0 1.5.2 1.9.7.4.4.6 1.1.6 1.9v4.5zM208 10.6c0-.6.3-.9 1-.9s1 .3 1 .9c0 .3-.1.5-.3.7-.2.2-.4.2-.8.2-.6.1-.9-.2-.9-.9zm2 8.9h-1.9v-7h1.9v7zM215.9 19.6c-.8 0-1.5-.3-1.9-.9h-.1c.1.6.1.9.1 1v2.8h-2V12.4h1.6l.3.9h.1c.5-.7 1.1-1 2-1 .8 0 1.5.3 2 1 .5.6.7 1.5.7 2.7 0 .8-.1 1.4-.3 2-.2.6-.5 1-.9 1.3-.6.2-1.1.3-1.6.3zm-.6-5.8c-.5 0-.8.1-1 .4-.2.3-.3.8-.3 1.4v.2c0 .8.1 1.3.3 1.6.2.3.6.5 1.1.5.9 0 1.3-.7 1.3-2.1 0-.7-.1-1.2-.3-1.6-.3-.2-.6-.4-1.1-.4zM232.2 19.5h-2.4l-.7-.7c-.8.6-1.7.8-2.7.8-1 0-1.8-.2-2.4-.7-.6-.5-.9-1.1-.9-1.9 0-.6.1-1.1.4-1.5.3-.4.7-.8 1.3-1.1-.3-.4-.5-.7-.7-1-.1-.3-.2-.7-.2-1.1 0-.6.2-1.2.7-1.5.5-.4 1.1-.6 2-.6.8 0 1.4.2 1.9.5.5.4.7.8.7 1.5 0 .5-.1 1-.4 1.4-.3.4-.8.8-1.4 1.2l1.8 1.7c.3-.5.6-1.1.8-1.9h2c-.2.6-.4 1.1-.6 1.7-.3.5-.6 1-.9 1.4l1.7 1.8zm-7.1-2.7c0 .4.1.6.4.9.3.2.6.3 1 .3.5 0 1-.1 1.4-.4l-2.1-2.1-.6.6c-.1.2-.1.4-.1.7zm2.2-4.5c0-.2-.1-.4-.2-.5s-.3-.2-.6-.2-.5.1-.7.2c-.2.1-.2.3-.2.6 0 .4.2.8.6 1.2.4-.2.6-.4.8-.6.2-.2.3-.4.3-.7z"/></g><g class="st1"><path class="st0" d="M155.3 27.1c0 1-.3 1.7-.9 2.3-.6.5-1.5.8-2.6.8h-.8v3.3h-2v-9.2h2.9c1.1 0 2 .2 2.6.7.5.4.8 1.1.8 2.1zm-4.4 1.4h.6c.6 0 1.1-.1 1.3-.4.3-.2.4-.6.4-1 0-.5-.1-.8-.4-1-.2-.2-.6-.3-1.2-.3h-.9v2.7zM160.8 26.3c.3 0 .5 0 .6.1l-.1 1.8c-.2 0-.3-.1-.6-.1-.6 0-1.1.2-1.4.5s-.5.8-.5 1.3v3.6h-1.9v-7h1.5l.3 1.2h.1c.2-.4.5-.7.9-1s.7-.4 1.1-.4zM169.1 29.9c0 1.1-.3 2-.9 2.7-.6.6-1.4 1-2.5 1-.7 0-1.3-.1-1.8-.4-.5-.3-.9-.7-1.2-1.3-.3-.6-.4-1.2-.4-1.9 0-1.1.3-2 .9-2.7s1.4-1 2.5-1c.7 0 1.3.1 1.8.4.5.3.9.7 1.2 1.3.3.5.4 1.1.4 1.9zm-4.8 0c0 .7.1 1.2.3 1.6.2.4.6.5 1.1.5.5 0 .9-.2 1.1-.5.2-.4.3-.9.3-1.6 0-.7-.1-1.2-.3-1.6-.2-.3-.6-.5-1.1-.5-.5 0-.9.2-1.1.5-.2.4-.3.9-.3 1.6zM174.6 27.8H173v5.6h-2v-5.6h-1v-.9l1.1-.5v-.5c0-.8.2-1.4.6-1.8.4-.4 1-.6 1.9-.6.7 0 1.3.1 1.8.3l-.5 1.4c-.4-.1-.7-.2-1.1-.2-.3 0-.5.1-.6.2-.1.2-.2.4-.2.6v.4h1.7v1.6zM178.9 33.5c-1.1 0-2-.3-2.7-.9-.6-.6-1-1.5-1-2.7 0-1.2.3-2.1.9-2.7.6-.6 1.4-1 2.5-1 1 0 1.8.3 2.3.8.6.6.8 1.3.8 2.3v.9h-4.5c0 .5.2 1 .5 1.3.3.3.7.5 1.3.5.4 0 .8 0 1.2-.1.4-.1.8-.2 1.2-.4V33c-.3.2-.7.3-1.1.4s-.8.1-1.4.1zm-.3-5.9c-.4 0-.7.1-1 .4s-.4.6-.4 1.1h2.7c0-.5-.1-.8-.4-1.1-.1-.3-.4-.4-.9-.4zM188.3 31.3c0 .7-.3 1.3-.8 1.6-.5.4-1.3.6-2.3.6-.5 0-1 0-1.3-.1s-.7-.2-1-.3v-1.6c.4.2.8.3 1.2.4.4.1.8.2 1.2.2.7 0 1-.2 1-.6 0-.2 0-.3-.1-.4-.1-.1-.3-.2-.5-.3-.2-.1-.5-.3-.9-.4-.5-.2-.9-.4-1.2-.6-.3-.2-.4-.4-.6-.7-.1-.2-.2-.6-.2-.9 0-.6.2-1.1.7-1.4.5-.3 1.2-.5 2.1-.5.8 0 1.7.2 2.5.6l-.6 1.4c-.4-.2-.7-.3-1-.4-.3-.1-.6-.1-.9-.1-.6 0-.9.2-.9.5 0 .2.1.3.3.4l1.2.6c.6.2 1 .4 1.2.6.3.2.4.4.6.7.2.1.3.4.3.7zM194.7 31.3c0 .7-.3 1.3-.8 1.6-.5.4-1.3.6-2.3.6-.5 0-1 0-1.3-.1s-.7-.2-1-.3v-1.6c.4.2.8.3 1.2.4.4.1.8.2 1.2.2.7 0 1-.2 1-.6 0-.2 0-.3-.1-.4-.1-.1-.3-.2-.5-.3-.2-.1-.5-.3-.9-.4-.5-.2-.9-.4-1.2-.6-.3-.2-.4-.4-.6-.7-.1-.2-.2-.6-.2-.9 0-.6.2-1.1.7-1.4.5-.3 1.2-.5 2.1-.5.8 0 1.7.2 2.5.6l-.6 1.4c-.4-.2-.7-.3-1-.4-.3-.1-.6-.1-.9-.1-.6 0-.9.2-.9.5 0 .2.1.3.3.4l1.2.6c.6.2 1 .4 1.2.6.3.2.4.4.6.7.2.1.3.4.3.7zM196.1 24.6c0-.6.3-.9 1-.9s1 .3 1 .9c0 .3-.1.5-.3.7-.2.2-.4.2-.8.2-.5 0-.9-.3-.9-.9zm2 8.8h-1.9v-7h1.9v7zM206.6 29.9c0 1.1-.3 2-.9 2.7-.6.6-1.4 1-2.5 1-.7 0-1.3-.1-1.8-.4-.5-.3-.9-.7-1.2-1.3-.3-.6-.4-1.2-.4-1.9 0-1.1.3-2 .9-2.7s1.4-1 2.5-1c.7 0 1.3.1 1.8.4.5.3.9.7 1.2 1.3s.4 1.1.4 1.9zm-4.9 0c0 .7.1 1.2.3 1.6.2.4.6.5 1.1.5.5 0 .9-.2 1.1-.5.2-.4.3-.9.3-1.6 0-.7-.1-1.2-.3-1.6-.2-.3-.6-.5-1.1-.5-.5 0-.9.2-1.1.5-.2.4-.3.9-.3 1.6zM214.7 33.4h-1.9v-4.1c0-.5-.1-.9-.3-1.1-.2-.3-.5-.4-.9-.4-.5 0-.9.2-1.2.5-.2.4-.4 1-.4 1.8v3.3h-1.9v-7h1.5l.3.9h.1c.2-.3.5-.6.9-.8.4-.2.8-.3 1.3-.3.8 0 1.4.2 1.9.7s.6 1.1.6 1.9v4.6zM221.1 33.4l-.4-1h-.1c-.3.4-.7.7-1 .8s-.8.2-1.3.2c-.7 0-1.2-.2-1.6-.6-.4-.4-.6-.9-.6-1.6 0-.7.3-1.3.8-1.7.5-.4 1.3-.5 2.4-.6h1.2v-.3c0-.7-.4-1.1-1.1-1.1-.6 0-1.2.2-2 .5l-.6-1.3c.8-.4 1.7-.6 2.7-.6.9 0 1.7.2 2.2.6.5.4.8 1 .8 1.9v4.7h-1.4zm-.6-3.2h-.7c-.6 0-1 .1-1.2.3-.3.2-.4.5-.4.8 0 .5.3.8.9.8.4 0 .8-.1 1.1-.4.3-.3.4-.6.4-1v-.5zM226.4 33.4h-1.9v-9.8h1.9v9.8zM239.5 28.7c0 1.5-.4 2.7-1.3 3.5s-2.1 1.2-3.7 1.2h-2.6v-9.2h2.9c1.5 0 2.7.4 3.5 1.2s1.2 1.9 1.2 3.3zm-2 .1c0-2-.9-3-2.6-3h-1v6h.8c1.9 0 2.8-1 2.8-3zM244.5 33.5c-1.1 0-2-.3-2.7-.9-.6-.6-1-1.5-1-2.7 0-1.2.3-2.1.9-2.7.6-.6 1.4-1 2.5-1 1 0 1.8.3 2.3.8.6.6.8 1.3.8 2.3v.9h-4.5c0 .5.2 1 .5 1.3.3.3.7.5 1.3.5.4 0 .8 0 1.2-.1.4-.1.8-.2 1.2-.4V33c-.3.2-.7.3-1.1.4s-.9.1-1.4.1zm-.3-5.9c-.4 0-.7.1-1 .4s-.4.6-.4 1.1h2.7c0-.5-.1-.8-.4-1.1-.1-.3-.5-.4-.9-.4zM250.6 33.4l-2.7-7h2l1.4 4c.2.5.2 1 .3 1.4 0-.4.1-.9.3-1.4l1.4-4h2l-2.7 7h-2zM259.5 33.5c-1.1 0-2-.3-2.7-.9-.6-.6-1-1.5-1-2.7 0-1.2.3-2.1.9-2.7.6-.6 1.4-1 2.5-1 1 0 1.8.3 2.3.8.6.6.8 1.3.8 2.3v.9h-4.5c0 .5.2 1 .5 1.3.3.3.7.5 1.3.5.4 0 .8 0 1.2-.1.4-.1.8-.2 1.2-.4V33c-.3.2-.7.3-1.1.4s-.9.1-1.4.1zm-.3-5.9c-.4 0-.7.1-1 .4s-.4.6-.4 1.1h2.7c0-.5-.1-.8-.4-1.1-.2-.3-.5-.4-.9-.4zM265.8 33.4h-1.9v-9.8h1.9v9.8zM274.3 29.9c0 1.1-.3 2-.9 2.7-.6.6-1.4 1-2.5 1-.7 0-1.3-.1-1.8-.4-.5-.3-.9-.7-1.2-1.3-.3-.6-.4-1.2-.4-1.9 0-1.1.3-2 .9-2.7s1.4-1 2.5-1c.7 0 1.3.1 1.8.4.5.3.9.7 1.2 1.3s.4 1.1.4 1.9zm-4.9 0c0 .7.1 1.2.3 1.6.2.4.6.5 1.1.5.5 0 .9-.2 1.1-.5.2-.4.3-.9.3-1.6 0-.7-.1-1.2-.3-1.6-.2-.3-.6-.5-1.1-.5-.5 0-.9.2-1.1.5-.2.4-.3.9-.3 1.6zM279.7 33.5c-.8 0-1.5-.3-1.9-.9h-.1c.1.6.1.9.1 1v2.8h-1.9v-10h1.6l.3.9h.1c.5-.7 1.1-1 2-1 .8 0 1.5.3 2 1 .5.6.7 1.5.7 2.7 0 .8-.1 1.4-.3 2-.2.6-.5 1-.9 1.3-.6.1-1.1.2-1.7.2zm-.5-5.7c-.5 0-.8.1-1 .4-.2.3-.3.8-.3 1.4v.2c0 .8.1 1.3.3 1.6.2.3.6.5 1.1.5.9 0 1.3-.7 1.3-2.1 0-.7-.1-1.2-.3-1.6-.4-.2-.7-.4-1.1-.4zM290.3 33.4h-1.9v-4.1c0-.5-.1-.9-.3-1.1-.2-.3-.4-.4-.8-.4-.5 0-.8.2-1.1.5-.2.4-.3 1-.3 1.8v3.3H284v-7h1.5l.3.9h.1c.2-.3.5-.6.8-.8.4-.2.8-.3 1.2-.3 1.1 0 1.8.3 2.1 1h.2c.2-.3.5-.6.8-.8.4-.2.8-.3 1.2-.3.8 0 1.4.2 1.8.6.4.4.6 1.1.6 2v4.6h-1.9v-4.1c0-.5-.1-.9-.3-1.1-.2-.3-.4-.4-.8-.4-.5 0-.8.2-1.1.5s-.3.9-.3 1.6v3.6zM299.9 33.5c-1.1 0-2-.3-2.7-.9-.6-.6-1-1.5-1-2.7 0-1.2.3-2.1.9-2.7.6-.6 1.4-1 2.5-1 1 0 1.8.3 2.3.8.6.6.8 1.3.8 2.3v.9h-4.5c0 .5.2 1 .5 1.3.3.3.7.5 1.3.5.4 0 .8 0 1.2-.1.4-.1.8-.2 1.2-.4V33c-.3.2-.7.3-1.1.4s-.8.1-1.4.1zm-.3-5.9c-.4 0-.7.1-1 .4s-.4.6-.4 1.1h2.7c0-.5-.1-.8-.4-1.1-.1-.3-.5-.4-.9-.4zM310.9 33.4H309v-4.1c0-.5-.1-.9-.3-1.1-.2-.3-.5-.4-.9-.4-.5 0-.9.2-1.2.5-.2.4-.4 1-.4 1.8v3.3h-1.9v-7h1.5l.3.9h.1c.2-.3.5-.6.9-.8.4-.2.8-.3 1.3-.3.8 0 1.4.2 1.9.7s.6 1.1.6 1.9v4.6zM315.8 32c.3 0 .7-.1 1.2-.2v1.4c-.5.2-1.1.3-1.8.3-.8 0-1.3-.2-1.7-.6-.4-.4-.5-1-.5-1.7v-3.4h-.9V27l1.1-.6.6-1.5h1.2v1.5h2v1.4h-2v3.4c0 .3.1.5.2.6s.4.2.6.2z"/></g></svg>