<svg id="Layer_1" xmlns="http://www.w3.org/2000/svg" viewBox="0 0 23.7 21.5"><style>.st0{fill:#fff}</style><path class="st0" d="M5.4 1.7v3.7H1.7l3.7-3.7zm11.8 16.7v2.1H1V6.4h5.4V1h10.8v4.7h1v-5-.1-.1c0-.3-.2-.5-.5-.5h-12l-.1.1L.1 5.6l-.1.1v15.8h18.2v-3.1h-1z"/><path class="st0" d="M22.8 10.6h-1c-.1 0-.2-.1-.3-.2l-.2-.5c0-.1 0-.3.1-.3l.7-.7c.1-.1.2-.3.2-.5s0-.4-.2-.5L21 6.8c-.3-.3-.7-.3-1 0l-.7.7c-.1.1-.2.1-.3 0l-.5-.2c-.1 0-.2-.2-.2-.3V6c0-.4-.3-.7-.7-.7h-1.5c-.4 0-.7.3-.7.7v1c0 .1-.1.2-.2.3l-.5.2c-.1 0-.3 0-.3-.1l-.7-.7c-.3-.3-.7-.3-1 0l-1.1 1.1c-.1.1-.2.3-.2.5s.1.4.2.5l.7.7c.1.1.1.2 0 .3l-.2.5c0 .1-.2.2-.3.2h-1c-.4 0-.7.3-.7.7v1.5c0 .4.3.7.7.7h1c.1 0 .2.1.3.2l.2.5c0 .1 0 .3-.1.3l-.7.7c-.1.1-.2.3-.2.5s.1.4.2.5l1.1 1.1c.3.3.7.3 1 0l.7-.7c.1-.1.2-.1.3 0l.5.2c.1 0 .2.2.2.3v1c0 .4.3.7.7.7h1.5c.4 0 .7-.3.7-.7v-1c0-.1.1-.2.2-.3l.5-.2c.1 0 .3 0 .3.1l.7.7c.3.3.7.3 1 0l1.1-1.1c.1-.1.2-.3.2-.5s-.1-.4-.2-.5l-.7-.7c-.1-.1-.1-.2 0-.3l.2-.5c0-.1.2-.2.3-.2h1c.4 0 .7-.3.7-.7v-1.5c.1-.4-.3-.7-.7-.7zm.2 2.2c0 .1-.1.1-.1.1h-1c-.4 0-.7.3-.8.6l-.3.5c-.2.3-.1.8.2 1l.7.7v.2L20.6 17c-.1.1-.1.1-.2 0l-.7-.7c-.2-.2-.7-.3-1-.2l-.4.2c-.3.1-.6.5-.6.8v1c0 .1-.1.1-.1.1h-1.5c-.1 0-.1-.1-.1-.1v-1c0-.4-.3-.7-.6-.8l-.4-.2c-.2-.1-.3-.1-.4-.1-.2 0-.5.1-.6.3l-.7.7c-.1.1-.1.1-.2 0L12 15.8v-.1-.1l.7-.7c.3-.3.3-.7.2-1l-.2-.4c-.1-.3-.5-.6-.8-.6h-1c-.1 0-.1-.1-.1-.1v-1.5c0-.1.1-.1.1-.1h1c.4 0 .7-.3.8-.6l.2-.4c.2-.3.1-.8-.2-1l-.7-.8v-.1-.1l1-1c.1-.1.1-.1.2 0l.7.7c.2.2.7.3 1 .2l.4-.2c.3-.1.6-.5.6-.8v-1c0-.1.1-.1.1-.1h1.5c.1 0 .1.1.1.1v1c0 .4.3.7.6.8l.4.2c.3.2.8.1 1-.2l.7-.7c.1-.1.1-.1.2 0l1.1 1.1v.2l-.6.6c-.3.3-.3.7-.2 1l.2.4c.1.3.5.6.8.6h1c.1 0 .1.1.1.1v1.6z"/><path class="st0" d="M17.6 18.9h-1.5c-.5 0-.8-.4-.8-.8v-1c0-.1-.1-.2-.1-.2l-.5-.2c-.1-.1-.2 0-.2 0l-.7.7c-.3.3-.9.3-1.2 0l-1.1-1.1c-.2-.2-.2-.4-.2-.6s.1-.4.2-.6l.7-.7s.1-.2 0-.2l-.2-.4c0-.1-.1-.2-.2-.2h-1c-.5 0-.8-.4-.8-.8v-1.5c0-.5.4-.8.8-.8h1c.1 0 .2-.1.2-.1l.2-.5v-.2l-.7-.7c-.2-.2-.2-.4-.2-.6 0-.2.1-.4.2-.6l1.1-1.1c.3-.3.9-.3 1.2 0l.7.7s.2.1.2 0l.5-.2c.1 0 .2-.1.2-.2V6c0-.5.4-.8.8-.8h1.5c.5 0 .8.4.8.8v1c0 .1.1.2.1.2l.4.2c.1.1.2 0 .2 0l.8-.7c.3-.3.8-.3 1.2 0l1.1 1.1c.2.2.2.4.2.6 0 .2-.1.4-.2.6l-.7.7s-.1.2 0 .2l.2.5c0 .1.1.2.2.2h1c.5 0 .8.4.8.8v1.5c0 .5-.4.8-.8.8h-1c-.1 0-.2.1-.2.1l-.2.5v.2l.7.7c.2.2.2.4.2.6s-.1.4-.2.6l-1.1 1.1c-.3.3-.8.3-1.2 0l-.7-.7s-.2-.1-.2 0l-.5.2c-.1 0-.2.1-.2.2v1c0 .3-.4.7-.8.7zm-3.1-2.4h.2l.5.2c.1 0 .3.2.3.4v1c0 .3.3.6.6.6h1.5c.3 0 .6-.3.6-.6v-1c0-.2.1-.3.3-.4l.5-.2c.1-.1.3 0 .4.1l.7.7c.2.2.6.2.9 0l1.1-1.1c.1-.1.2-.3.2-.4s-.1-.3-.2-.4l-.7-.7c-.1-.1-.1-.3-.1-.5l.2-.5c0-.1.2-.3.4-.3h1c.3 0 .6-.3.6-.6v-1.5c0-.3-.3-.6-.6-.6h-1c-.1 0-.3-.1-.4-.3l-.2-.5c-.1-.1 0-.3.1-.4l.7-.7c.1-.1.2-.3.2-.4 0-.2-.1-.3-.2-.4L21 6.8c-.2-.2-.6-.2-.9 0l-.7.7c-.1.1-.3.2-.5.1l-.5-.2c-.1 0-.3-.2-.3-.4V6c0-.3-.3-.6-.6-.6H16c-.3 0-.6.3-.6.6v1c0 .1-.1.3-.3.4l-.5.2c-.1.1-.3 0-.4-.1l-.7-.7c-.2-.2-.7-.2-.9 0l-1.1 1.1c-.1.1-.2.3-.2.4s.1.3.2.4l.7.7c.1.1.1.3.1.5l-.2.5c0 .1-.2.3-.4.3h-1c-.3 0-.6.3-.6.6v1.5c0 .3.3.6.6.6h1c.1 0 .3.1.4.3l.2.5c.1.1 0 .3-.1.4l-.7.7c-.1.1-.2.3-.2.4s.1.3.2.4l1.1 1.1c.2.2.7.2.9 0l.7-.7h.3zm3.1 1.8h-1.5c-.1 0-.2-.1-.2-.2v-1c0-.3-.2-.6-.5-.7l-.4-.2c-.3-.1-.7-.1-.9.1l-.8.7c-.1.1-.2.1-.3 0l-1.1-1.1s-.1-.1-.1-.2 0-.1.1-.2l.7-.7c.2-.2.3-.6.2-.9l-.2-.4c-.1-.3-.4-.5-.7-.5h-1c-.1 0-.2-.1-.2-.2v-1.5c0-.1.1-.2.2-.2h1c.3 0 .6-.2.7-.5l.2-.4c.1-.3.1-.7-.1-.9l-.7-.7s-.1-.1-.1-.2 0-.1.1-.2l1-1.1c.1-.1.2-.1.3 0l.7.7c.2.2.6.3.9.2l.4-.2c.3-.1.5-.4.5-.7v-1c0-.1.1-.2.2-.2h1.5c.1 0 .2.1.2.2v1c0 .3.2.6.5.7l.6.2c.2.1.7 0 .9-.2l.7-.7.1-.1c.1 0 .1 0 .2.1l1.1 1.1s.1.1.1.2c0 0 0 .1-.1.2l-.7.7c-.2.2-.3.6-.2.9l.2.4c.1.3.4.5.7.5h1c.1 0 .2.1.2.2v1.5c0 .1-.1.2-.2.2h-1c-.3 0-.6.2-.7.5l-.2.5c-.1.3-.1.7.1.9l.7.7s.1.1.1.2 0 .1-.1.2l-1 1c-.1.1-.2.1-.3 0l-.7-.7c-.2-.2-.7-.3-.9-.2l-.4.2c-.3.1-.5.4-.5.7v1c-.1.2-.2.3-.3.3zm-3-2.4c.2 0 .3 0 .4.1l.4.2c.4.1.6.5.6.9v1h1.5v-1c0-.4.3-.8.7-.9l.4-.2c.3-.1.8-.1 1.1.2l.7.7 1.1-1.1.1-.1-.1.1-.6-.8c-.3-.3-.4-.8-.2-1.1l.2-.4c.1-.4.5-.6.9-.6h1v-1.5h-1c-.4 0-.8-.3-.9-.7l-.2-.4c-.2-.3-.1-.8.2-1.1l.7-.7-1.1-1.1-.7.6c-.3.3-.8.4-1.1.2l-.4-.2c-.4-.1-.6-.5-.6-.9v-1h-1.5v1c0 .4-.3.8-.7.9l-.4.2c-.3.1-.8.1-1.1-.2l-.7-.7-1.3 1v.1l.7.7c.3.3.4.8.2 1.1l-.2.4c-.1.4-.5.6-.9.6h-1v1.5h1c.4 0 .8.3.9.7l.2.4c.2.3.1.8-.2 1.1l-.7.9.1-.1 1.1 1.1.7-.7c.1-.1.4-.2.7-.2z"/><g><path class="st0" d="M16.9 9.4c-1.3 0-2.3 1-2.3 2.3 0 1.3 1 2.3 2.3 2.3 1.3 0 2.3-1 2.3-2.3 0-1.3-1-2.3-2.3-2.3zm0 4.1c-1 0-1.7-.8-1.7-1.7 0-1 .8-1.7 1.7-1.7 1 0 1.7.8 1.7 1.7 0 .9-.8 1.7-1.7 1.7z"/><path class="st0" d="M16.9 14.1c-1.3 0-2.4-1.1-2.4-2.4 0-1.3 1.1-2.4 2.4-2.4s2.4 1.1 2.4 2.4c0 1.4-1.1 2.4-2.4 2.4zm0-4.6c-1.2 0-2.2 1-2.2 2.2 0 1.2 1 2.2 2.2 2.2s2.2-1 2.2-2.2c0-1.2-1-2.2-2.2-2.2zm0 4c-1 0-1.8-.8-1.8-1.8s.8-1.8 1.8-1.8 1.8.8 1.8 1.8-.8 1.8-1.8 1.8zm0-3.4c-.9 0-1.6.7-1.6 1.6s.7 1.6 1.6 1.6c.9 0 1.6-.7 1.6-1.6s-.7-1.6-1.6-1.6z"/></g></svg>