<svg xmlns="http://www.w3.org/2000/svg" xmlns:xlink="http://www.w3.org/1999/xlink" width="2101.8" height="2150.3" style="enable-background:new 0 0 2101.7736816 2150.298584">
    <style>
        .st0{clip-path:url(#SVGID_00000127028234382588196100000011779268117139125162_);fill:url(#SVGID_00000022552934606599785690000015420791113963108774_)}.st1{clip-path:url(#SVGID_00000158709802917068905020000010728261133061150125_);fill:url(#SVGID_00000096028604875663047840000002623690157256492686_)}.st2{clip-path:url(#SVGID_00000101806600982316217330000007879647510718509243_);fill:url(#SVGID_00000160167604037260583920000009692466102014715019_)}.st3{clip-path:url(#SVGID_00000166675417592989407420000004930809731636376245_);fill:url(#SVGID_00000008115383611590155260000004213094140725490074_)}.st5{fill:url(#SVGID_00000013185762584804340080000017022018034642504382_)}.st6{mask:url(#SVGID_00000146497929825404543250000004032741975681475214_);fill-rule:evenodd;clip-rule:evenodd;fill:#990038}.st8{clip-path:url(#SVGID_00000155121445115640977750000008220389582592088252_);fill:url(#SVGID_00000098182126799098280060000007757458633979537083_)}.st9{clip-path:url(#SVGID_00000088823187001390398220000010084707899810339714_);fill:url(#SVGID_00000150801843264877527970000016764554309105919879_)}.st10{clip-path:url(#SVGID_00000058573721317810924770000010198352253069322637_);fill:url(#SVGID_00000097463313615392028830000001637471022080851842_)}.st11{clip-path:url(#SVGID_00000170995106580277515270000002883652128286623363_);fill:url(#SVGID_00000144301102881126440930000009007557187857275801_)}.st12{clip-path:url(#SVGID_00000092445099132433259940000003711140037431011498_);fill:url(#SVGID_00000132787252121675620070000005440700477000428171_)}.st13{clip-path:url(#SVGID_00000025426463058550874200000010607701428517868696_);fill:url(#SVGID_00000069365069572018069480000013689345949290114720_)}.st14{clip-path:url(#SVGID_00000021087103126668855930000005669101493764121476_);fill:url(#SVGID_00000047778786326563036840000006074820229376488613_)}.st15{clip-path:url(#SVGID_00000142174787158275195950000011214534824245675957_);fill:url(#SVGID_00000153684822183572887120000012311785851503592889_)}.st16{clip-path:url(#SVGID_00000045616194193748571950000013367351407484218046_);fill:url(#SVGID_00000118369971415424364140000001340408340694544788_)}.st17{clip-path:url(#SVGID_00000031195950589416283550000003869821750358188714_);fill:url(#SVGID_00000046325474931819379770000008129690549236575405_)}.st18{filter:url(#Adobe_OpacityMaskFilter_00000074429984948963355080000011044515922153049507_)}.st19{fill:url(#SVGID_00000170264442439374440060000018055668867566624652_)}.st20{mask:url(#SVGID_00000134959658858170795910000016933955162901101196_);fill-rule:evenodd;clip-rule:evenodd;fill:#102770}
    </style>
    <defs>
        <path id="SVGID_1_" d="M552 1927c385-90 593-279 677-539-119 16-172 43-224 52-97 238-294 399-453 487"/>
    </defs>
    <clipPath id="SVGID_00000040569201995275639960000002527927683581925805_">
        <use xlink:href="#SVGID_1_" style="overflow:visible"/>
    </clipPath>
    <linearGradient id="SVGID_00000079469401404469042430000006188377655471913601_" x1="993.9" x2="318.4" y1="1579" y2="2088.4" gradientUnits="userSpaceOnUse">
        <stop offset="0" style="stop-color:#00478f"/>
        <stop offset="1" style="stop-color:#29c4ff"/>
    </linearGradient>
    <path d="M552 1388h677v539H552z" style="clip-path:url(#SVGID_00000040569201995275639960000002527927683581925805_);fill:url(#SVGID_00000079469401404469042430000006188377655471913601_)"/>
    <defs>
        <path id="SVGID_00000134954106299030023960000016004830140139912076_" d="M710 2086c352-181 507-416 525-688-111 45-156 83-204 105-36 255-188 459-321 583"/>
    </defs>
    <clipPath id="SVGID_00000041297083399523756540000011422421332620870845_">
        <use xlink:href="#SVGID_00000134954106299030023960000016004830140139912076_" style="overflow:visible"/>
    </clipPath>
    <linearGradient id="SVGID_00000152254758327873556800000007218512629616748947_" x1="1100.8" x2="542.3" y1="1570.7" y2="2316.2" gradientUnits="userSpaceOnUse">
        <stop offset="0" style="stop-color:#00478f"/>
        <stop offset="1" style="stop-color:#29c4ff"/>
    </linearGradient>
    <path d="M710 1398h525v688H710z" style="clip-path:url(#SVGID_00000041297083399523756540000011422421332620870845_);fill:url(#SVGID_00000152254758327873556800000007218512629616748947_)"/>
    <defs>
        <path id="SVGID_00000173158211128218847660000010121167979206678660_" d="M943 2150c243-224 315-448 269-671-79 60-107 102-141 130 28 214-49 412-128 541"/>
    </defs>
    <clipPath id="SVGID_00000029048057948202755010000004134356437613706886_">
        <use xlink:href="#SVGID_00000173158211128218847660000010121167979206678660_" style="overflow:visible"/>
    </clipPath>
    <linearGradient id="SVGID_00000060018681903140307570000014984663101800455358_" x1="1164.4" x2="999.8" y1="1566.5" y2="2208.1" gradientUnits="userSpaceOnUse">
        <stop offset="0" style="stop-color:#00478f"/>
        <stop offset="1" style="stop-color:#29c4ff"/>
    </linearGradient>
    <path d="M943 1479h315v671H943z" style="clip-path:url(#SVGID_00000029048057948202755010000004134356437613706886_);fill:url(#SVGID_00000060018681903140307570000014984663101800455358_)"/>
    <defs>
        <path id="SVGID_00000112600524680061843270000007444941875166400407_" d="M83 775c134-623 963 167 1084 401 0 0 269 533-70 952 225-463-147-662-477-780-368-131-312-404-442-469-64-33-132 0-168 65-10-57-5-101 73-169"/>
    </defs>
    <clipPath id="SVGID_00000021101778172808145380000018141716672571781002_">
        <use xlink:href="#SVGID_00000112600524680061843270000007444941875166400407_" style="overflow:visible"/>
    </clipPath>
    <linearGradient id="SVGID_00000171705762849967661860000017394814600114572672_" x1="638.9" x2="738.5" y1="271.1" y2="1362.6" gradientUnits="userSpaceOnUse">
        <stop offset="0" style="stop-color:#ffce4b"/>
        <stop offset="1" style="stop-color:#d3226f"/>
    </linearGradient>
    <path d="M0 152h1436v1976H0z" style="clip-path:url(#SVGID_00000021101778172808145380000018141716672571781002_);fill:url(#SVGID_00000171705762849967661860000017394814600114572672_)"/>
    <defs>
        <filter id="Adobe_OpacityMaskFilter" width="1184.9" height="1291.9" x="9.7" y="771.2" filterUnits="userSpaceOnUse">
            <feColorMatrix values="1 0 0 0 0 0 1 0 0 0 0 0 1 0 0 0 0 0 1 0"/>
        </filter>
    </defs>
    <mask id="SVGID_00000091715792334523331630000017243824866577640345_" width="1184.9" height="1291.9" x="9.7" y="771.2" maskUnits="userSpaceOnUse">
        <g style="filter:url(#Adobe_OpacityMaskFilter)">
            <linearGradient id="SVGID_00000182506288742617389930000006144456952923875005_" x1="-1406.1" x2="-2328.1" y1="2000.4" y2="799.2" gradientTransform="translate(2282 -226)" gradientUnits="userSpaceOnUse">
                <stop offset="0" style="stop-color:#fff"/>
                <stop offset="1" style="stop-color:#000"/>
            </linearGradient>
            <path d="M10 771h1185v1292H10z" style="fill:url(#SVGID_00000182506288742617389930000006144456952923875005_)"/>
        </g>
    </mask>
    <path d="M1126 2063c161-417-191-603-506-715-368-131-312-404-442-469-64-33-132 0-168 65 0 0 131-424 666 56 0 0 744 333 450 1063" style="mask:url(#SVGID_00000091715792334523331630000017243824866577640345_);fill-rule:evenodd;clip-rule:evenodd;fill:#990038"/>
    <path d="M238 939C602 1293 898-59 1912 82 935 180 980 1305 463 1268" style="fill:none;stroke:#231916;stroke-width:.5669;stroke-miterlimit:22.9256001"/>
    <defs>
        <path id="SVGID_00000180341813510942441570000014191907608088462215_" d="M793 1402c80-197 60-347-28-464-29 57-52 105-64 131 53 136 89 273 92 333"/>
    </defs>
    <clipPath id="SVGID_00000115486123225200607570000007334298790478654092_">
        <use xlink:href="#SVGID_00000180341813510942441570000014191907608088462215_" style="overflow:visible"/>
    </clipPath>
    <linearGradient id="SVGID_00000092422702794919152160000004844543920837041835_" x1="781.6" x2="824" y1="1121.4" y2="1518.1" gradientUnits="userSpaceOnUse">
        <stop offset="0" style="stop-color:#00478f"/>
        <stop offset="1" style="stop-color:#51f4e9"/>
    </linearGradient>
    <path d="M701 938h172v464H701z" style="clip-path:url(#SVGID_00000115486123225200607570000007334298790478654092_);fill:url(#SVGID_00000092422702794919152160000004844543920837041835_)"/>
    <defs>
        <path id="SVGID_00000139998120270536844620000009922548373788730758_" d="M945 1432c81-288 31-495-110-645-33 84-57 156-70 194 95 181 166 367 180 451"/>
    </defs>
    <clipPath id="SVGID_00000004505226115913914520000006072574737429893766_">
        <use xlink:href="#SVGID_00000139998120270536844620000009922548373788730758_" style="overflow:visible"/>
    </clipPath>
    <linearGradient id="SVGID_00000109019605921488388320000000950630714368556203_" x1="881.8" x2="970.6" y1="1011" y2="1644.5" gradientUnits="userSpaceOnUse">
        <stop offset="0" style="stop-color:#00478f"/>
        <stop offset="1" style="stop-color:#29c4ff"/>
    </linearGradient>
    <path d="M765 787h261v645H765z" style="clip-path:url(#SVGID_00000004505226115913914520000006072574737429893766_);fill:url(#SVGID_00000109019605921488388320000000950630714368556203_)"/>
    <defs>
        <path id="SVGID_00000015340005328743018170000000233183201965790366_" d="M1165 1424c43-328-45-546-223-688-22 98-47 162-55 206 133 183 250 393 278 482"/>
    </defs>
    <clipPath id="SVGID_00000087386373021506649390000009008526307675835266_">
        <use xlink:href="#SVGID_00000015340005328743018170000000233183201965790366_" style="overflow:visible"/>
    </clipPath>
    <linearGradient id="SVGID_00000019677467973258337990000018008269655472149937_" x1="899.9" x2="1217.7" y1="786.5" y2="1419.3" gradientUnits="userSpaceOnUse">
        <stop offset="0" style="stop-color:#003780"/>
        <stop offset="1" style="stop-color:#b222d3"/>
    </linearGradient>
    <path d="M887 736h321v688H887z" style="clip-path:url(#SVGID_00000087386373021506649390000009008526307675835266_);fill:url(#SVGID_00000019677467973258337990000018008269655472149937_)"/>
    <defs>
        <path id="SVGID_00000164491407139750437210000002823109383544911515_" d="M1336 1414c60-373-72-593-323-721l-53 102c176 206 344 505 376 619"/>
    </defs>
    <clipPath id="SVGID_00000035494382529142453270000016204247378164278714_">
        <use xlink:href="#SVGID_00000164491407139750437210000002823109383544911515_" style="overflow:visible"/>
    </clipPath>
    <linearGradient id="SVGID_00000137836263060795821750000014546753035997113525_" x1="1192" x2="1592.9" y1="1063" y2="1330.7" gradientUnits="userSpaceOnUse">
        <stop offset="0" style="stop-color:#4e046d"/>
        <stop offset="1" style="stop-color:#ff8bc7"/>
    </linearGradient>
    <path d="M960 693h436v722H960z" style="clip-path:url(#SVGID_00000035494382529142453270000016204247378164278714_);fill:url(#SVGID_00000137836263060795821750000014546753035997113525_)"/>
    <defs>
        <path id="SVGID_00000167388957698466749770000000166635682391849611_" d="M1667 1298c-71-430-308-604-645-629l-41 77c270 135 605 434 686 552"/>
    </defs>
    <clipPath id="SVGID_00000085943710137562935350000001308358479327969671_">
        <use xlink:href="#SVGID_00000167388957698466749770000000166635682391849611_" style="overflow:visible"/>
    </clipPath>
    <linearGradient id="SVGID_00000112624922090794998990000013763774218358387346_" x1="1021.5" x2="1834.7" y1="711.6" y2="1441.6" gradientUnits="userSpaceOnUse">
        <stop offset="0" style="stop-color:#4e046d"/>
        <stop offset="1" style="stop-color:#ff8bc7"/>
    </linearGradient>
    <path d="M981 669h686v629H981z" style="clip-path:url(#SVGID_00000085943710137562935350000001308358479327969671_);fill:url(#SVGID_00000112624922090794998990000013763774218358387346_)"/>
    <defs>
        <path id="SVGID_00000078764974598120713430000006049932077572127632_" d="M1961 1091c-219-441-529-564-896-497l-63 112c351 61 828 280 959 385"/>
    </defs>
    <clipPath id="SVGID_00000038408337005240288220000002830603689965667207_">
        <use xlink:href="#SVGID_00000078764974598120713430000006049932077572127632_" style="overflow:visible"/>
    </clipPath>
    <linearGradient id="SVGID_00000121273887223798356880000003068320099736739218_" x1="1396.1" x2="2007.4" y1="765.5" y2="1076.9" gradientUnits="userSpaceOnUse">
        <stop offset="0" style="stop-color:#b91c58"/>
        <stop offset="1" style="stop-color:#f95c97"/>
    </linearGradient>
    <path d="M1002 527h959v564h-959z" style="clip-path:url(#SVGID_00000038408337005240288220000002830603689965667207_);fill:url(#SVGID_00000121273887223798356880000003068320099736739218_)"/>
    <defs>
        <path id="SVGID_00000118392431031691216670000007214355745406231964_" d="M2099 841c-288-404-615-476-970-349-25 38-50 78-73 118 357-4 892 145 1043 231"/>
    </defs>
    <clipPath id="SVGID_00000092455568063353941270000001761695629345017007_">
        <use xlink:href="#SVGID_00000118392431031691216670000007214355745406231964_" style="overflow:visible"/>
    </clipPath>
    <linearGradient id="SVGID_00000139287812717139752790000007264413250132505478_" x1="1235.6" x2="2237.4" y1="539" y2="725.9" gradientUnits="userSpaceOnUse">
        <stop offset="0" style="stop-color:#b91c58"/>
        <stop offset="1" style="stop-color:#ff8bc7"/>
    </linearGradient>
    <path d="M1056 365h1043v476H1056z" style="clip-path:url(#SVGID_00000092455568063353941270000001761695629345017007_);fill:url(#SVGID_00000139287812717139752790000007264413250132505478_)"/>
    <defs>
        <path id="SVGID_00000132777206177729485680000011981833213047970216_" d="M2041 557c-291-296-571-309-847-154-26 33-53 70-78 109 287-62 783-8 925 45"/>
    </defs>
    <clipPath id="SVGID_00000029032375645160041710000004836840030117943183_">
        <use xlink:href="#SVGID_00000132777206177729485680000011981833213047970216_" style="overflow:visible"/>
    </clipPath>
    <linearGradient id="SVGID_00000080896898629173776680000013082743014053230720_" x1="1991.5" x2="1304.7" y1="474.7" y2="354.4" gradientUnits="userSpaceOnUse">
        <stop offset="0" style="stop-color:#ffce4b"/>
        <stop offset="1" style="stop-color:#d3226f"/>
    </linearGradient>
    <path d="M1116 248h925v309h-925z" style="clip-path:url(#SVGID_00000029032375645160041710000004836840030117943183_);fill:url(#SVGID_00000080896898629173776680000013082743014053230720_)"/>
    <defs>
        <path id="SVGID_00000178206916162973765020000005090102273080541344_" d="M921 884c192-324 411-744 991-802C1321 0 974 426 715 724c-185 214-325 363-477 215 50 84 75 223 225 329 211 15 328-162 458-384"/>
    </defs>
    <clipPath id="SVGID_00000022555921341909480920000015408244580870250169_">
        <use xlink:href="#SVGID_00000178206916162973765020000005090102273080541344_" style="overflow:visible"/>
    </clipPath>
    <linearGradient id="SVGID_00000016790586188683916110000010171930299310066064_" x1="794.1" x2="1215.2" y1="1358.5" y2="284.4" gradientUnits="userSpaceOnUse">
        <stop offset="0" style="stop-color:#00478f"/>
        <stop offset="1" style="stop-color:#c11fda"/>
    </linearGradient>
    <path d="M238 0h1674v1283H238z" style="clip-path:url(#SVGID_00000022555921341909480920000015408244580870250169_);fill:url(#SVGID_00000016790586188683916110000010171930299310066064_)"/>
    <defs>
        <path id="SVGID_00000037656653079769723930000007401452572361535907_" d="M2102 311c-309-219-579-116-579-116-149 78-262 187-355 306 132-167 771-220 934-190"/>
    </defs>
    <clipPath id="SVGID_00000051359142975229985410000014392914457300940429_">
        <use xlink:href="#SVGID_00000037656653079769723930000007401452572361535907_" style="overflow:visible"/>
    </clipPath>
    <linearGradient id="SVGID_00000086675209683897654060000017084178126929264057_" x1="2004.7" x2="1045.9" y1="333.1" y2="238.4" gradientUnits="userSpaceOnUse">
        <stop offset="0" style="stop-color:#ffce4b"/>
        <stop offset="1" style="stop-color:#d3226f"/>
    </linearGradient>
    <path d="M1168 92h934v409h-934z" style="clip-path:url(#SVGID_00000051359142975229985410000014392914457300940429_);fill:url(#SVGID_00000086675209683897654060000017084178126929264057_)"/>
    <defs>
        <filter id="Adobe_OpacityMaskFilter_00000085947362721140504150000016939078952892238990_" width="1603.4" height="1187.5" x="309" y="81.8" filterUnits="userSpaceOnUse">
            <feColorMatrix values="1 0 0 0 0 0 1 0 0 0 0 0 1 0 0 0 0 0 1 0"/>
        </filter>
    </defs>
    <mask id="SVGID_00000115500582988834472180000014240888514615491747_" width="1603.4" height="1187.5" x="309" y="81.8" maskUnits="userSpaceOnUse">
        <g style="filter:url(#Adobe_OpacityMaskFilter_00000085947362721140504150000016939078952892238990_)">
            <linearGradient id="SVGID_00000098220924058174688710000012614912649258238854_" x1="-2223" x2="-633.1" y1="1827.6" y2="860.7" gradientTransform="translate(2422 -598)" gradientUnits="userSpaceOnUse">
                <stop offset="0" style="stop-color:#fff"/>
                <stop offset="1" style="stop-color:#000"/>
            </linearGradient>
            <path d="M309 82h1603v1187H309z" style="fill:url(#SVGID_00000098220924058174688710000012614912649258238854_)"/>
        </g>
    </mask>
    <path d="M835 787c-332 511-526 300-526 300 32 61 76 126 154 181 211 15 328-162 458-384 192-324 411-744 991-802-675-8-1077 705-1077 705" style="mask:url(#SVGID_00000115500582988834472180000014240888514615491747_);fill-rule:evenodd;clip-rule:evenodd;fill:#102770"/>
</svg>
